# xmcd
#
# Track frame offsets: 
#        150
#        19854
#        39531
#        66531
#        86351
#        104485
#        125257
#        141419
#        163302
#        181377
#
# Disc length: 2701 seconds
#
# Revision: 0
# Processed by: cddbd v1.5.2PL0 Copyright (c) Steve Scherf et al.
# Submitted via: ExactAudioCopy v1.0b3
#
DISCID=8f0a8b0a
DTITLE=Blue Henry - Old Too Soon
DYEAR=2016
DGENRE=Americana
TTITLE0=Tension
TTITLE1=Ghosts
TTITLE2=Irish Royalty
TTITLE3=Whispers
TTITLE4=Can't Get to Heaven
TTITLE5=Old Too Soon
TTITLE6=Hallelujah
TTITLE7=I'll See You There
TTITLE8=Need You to Believe
TTITLE9=Dangerous
EXTD=
EXTT0=
EXTT1=
EXTT2=
EXTT3=
EXTT4=
EXTT5=
EXTT6=
EXTT7=
EXTT8=
EXTT9=
PLAYORDER=
